<?xml version="1.0" encoding="UTF-8" standalone="no"?><!DOCTYPE svg PUBLIC "-//W3C//DTD SVG 1.1//EN" "http://www.w3.org/Graphics/SVG/1.1/DTD/svg11.dtd"><svg width="100%" height="100%" viewBox="0 0 103 137" version="1.1" xmlns="http://www.w3.org/2000/svg" xmlns:xlink="http://www.w3.org/1999/xlink" xml:space="preserve" xmlns:serif="http://www.serif.com/" style="fill-rule:evenodd;clip-rule:evenodd;stroke-linejoin:round;stroke-miterlimit:1.41421;"><path d="M82.042,4.98c0.189,-2.025 1.506,-3.866 3.539,-4.622c2.828,-1.051 5.978,0.391 7.03,3.219c1.051,2.829 -0.391,5.979 -3.219,7.03c-0.91,0.338 -1.852,0.419 -2.747,0.278c-1.366,-0.215 -2.711,-0.071 -3.473,0.645c-7.368,6.929 -12.714,15.964 -14.621,26.102c-0.7,3.721 -1.03,7.521 -1.056,11.384c-0.01,1.511 1.089,3.604 2.836,4.245c0.818,0.3 1.628,0.632 2.426,0.998l0.285,-0.221c0.325,-0.22 0.401,-0.284 0.745,-0.473c1.032,-0.567 2.208,-0.832 3.384,-0.869l10.827,0c0.392,0.013 0.491,0.007 0.881,0.056c3.052,0.385 5.696,2.983 6.088,6.089c0.05,0.389 0.043,0.488 0.056,0.88c0,17.391 -0.163,34.784 0.001,52.174c0.004,0.33 0.039,0.803 0.039,0.803c0.247,0.055 0.5,0.075 0.754,0.076l0.443,0.015c0.392,0.039 0.492,0.04 0.879,0.116c3.468,0.679 6.108,4.269 5.606,7.864c-0.054,0.391 -0.086,0.486 -0.177,0.869l-2.509,9.243c-0.97,3.178 -4.025,5.233 -7.384,5.179c-5.837,-0.094 -11.822,-1.772 -16.038,-5.83c-12.036,9.508 -31.088,8.741 -43.432,-1.512c-19.029,-15.805 -19.575,-50.029 -1.578,-67.2c2.612,-2.492 5.586,-4.569 8.793,-6.196c1.473,-0.747 2.28,-2.832 1.441,-4.266c-4.359,-7.451 -9.332,-14.785 -17.737,-19.569c-3.315,-1.887 -7.14,-3.141 -10.956,-3.196c-1.173,-0.018 -1.795,1.14 -2.196,1.896c-0.606,1.141 -1.616,2.074 -2.922,2.559c-2.828,1.052 -5.978,-0.391 -7.029,-3.219c-1.052,-2.829 0.391,-5.978 3.219,-7.03c1.719,-0.639 3.557,-0.357 4.97,0.598c0.849,0.573 2.3,0.942 3.151,0.867c0.658,-0.059 1.321,-0.087 1.986,-0.086c9.329,0.057 17.933,5.593 24.285,12.057c3.906,3.974 7.236,8.581 9.948,13.398c0.593,1.053 2.576,2.363 4.228,2.138c1.652,-0.225 3.32,-0.345 4.992,-0.356c1.859,-0.013 3.062,-1.953 3.103,-3.172c0.123,-3.655 0.648,-7.291 1.421,-10.699c2.575,-11.355 9.092,-21.603 18.209,-29.129c0.896,-0.739 1.418,-2.157 1.509,-3.133Zm-22.934,70.48c-2.956,0.027 -5.909,0.938 -8.216,2.784c-4.782,3.827 -6.328,10.638 -6.164,16.648c0.187,6.894 2.975,14.515 10.252,16.873c4.724,1.531 10.097,0.06 13.983,-3.527l0.128,-0.12l0,-30.185c-3.018,-1.538 -6.341,-2.447 -9.764,-2.473c-0.073,0 -0.146,0 -0.219,0Z" style="fill:#50b668;fill-rule:nonzero;"/></svg>