<?xml version="1.0" encoding="UTF-8" standalone="no"?><!DOCTYPE svg PUBLIC "-//W3C//DTD SVG 1.1//EN" "http://www.w3.org/Graphics/SVG/1.1/DTD/svg11.dtd"><svg width="100%" height="100%" viewBox="0 0 400 128" version="1.1" xmlns="http://www.w3.org/2000/svg" xmlns:xlink="http://www.w3.org/1999/xlink" xml:space="preserve" xmlns:serif="http://www.serif.com/" style="fill-rule:evenodd;clip-rule:evenodd;stroke-linejoin:round;stroke-miterlimit:1.41421;"><path id="Blue" d="M57.24,127.597c45.148,-13.851 93.083,-21.305 142.745,-21.305c49.661,0 97.596,7.454 142.744,21.305c-46.028,-6.995 -93.784,-10.678 -142.744,-10.678c-48.961,0 -96.716,3.683 -142.745,10.678Zm324.677,-78.732c0.626,0.058 0.784,0.09 1.383,0.282l6.065,2.188c2.44,0.979 3.879,3.262 2.927,6.229l-3.549,9.838l8.079,2.915c0,0 4.236,2.149 2.927,6.23l-2.474,6.856c-0.98,2.439 -3.262,3.879 -6.23,2.926l-8.079,-2.915c-2.133,5.912 -4.328,11.801 -6.396,17.736c-0.648,1.901 -2.081,4.32 1.611,5.443c1.846,0.562 3.864,0.368 5.84,0.066c0,0 2.477,-0.124 3.929,1.138c1.055,0.917 1.626,1.781 1.673,3.732l-0.085,7.122c-0.052,1.076 -0.154,1.252 -0.334,1.712c-1.55,3.968 -7.952,3.854 -12.711,3.262c-8.684,-1.08 -16.991,-7.025 -18.402,-16.249c-0.678,-4.437 0.196,-8.97 1.718,-13.241l6.09,-16.878l-3.656,-1.332c-2.249,-1.096 -3.519,-3.248 -2.604,-6.1l2.474,-6.856c0.978,-2.436 3.262,-3.879 6.23,-2.927l4.008,1.446l4.94,-9.931c0,0 2.06,-2.74 4.626,-2.692Zm-353.884,-8.829c1.8,0.016 4.368,0.26 4.368,0.26c1.791,0.208 2.418,0.735 3.134,1.476c0.86,0.891 1.313,2.111 1.366,3.361l0.031,7.537c-0.037,1.109 -0.142,1.292 -0.325,1.767c-0.832,2.164 -3.217,3.321 -5.679,3.013c-2.226,-0.26 -2.424,-0.243 -3.697,-0.228c-0.413,0.004 -0.824,0.044 -1.231,0.112c-0.314,0.053 -0.625,0.122 -0.932,0.205c-1.744,0.473 -3.605,1.744 -3.393,3.891c0.076,0.774 0.292,1.528 0.552,2.259l0.469,1.302l8.961,-3.225c0,0 4.639,-1.013 6.227,2.932l2.469,6.858c0.713,2.24 -0.214,4.822 -2.267,5.93c-0.285,0.154 -0.365,0.177 -0.665,0.297l-8.961,3.225l11.738,32.613c0,0 1.066,4.618 -2.931,6.228l-7.914,2.848c-2.24,0.713 -4.822,-0.214 -5.93,-2.268c-0.154,-0.285 -0.176,-0.364 -0.297,-0.664l-11.738,-32.612l-2.801,0.993c-2.165,0.515 -4.536,-0.435 -5.584,-2.377c-0.154,-0.285 -0.176,-0.364 -0.297,-0.664l-2.468,-6.858c-0.713,-2.241 0.214,-4.822 2.267,-5.931c0.285,-0.154 0.365,-0.176 0.664,-0.297l2.455,-0.883c-1.253,-3.481 -3.558,-13.507 1.213,-20.927c4.413,-6.864 13.213,-10.202 21.196,-10.173Zm281.242,2.644c0.329,0.044 0.329,0.044 0.655,0.112l7.901,1.913c1.598,0.446 2.885,1.554 3.465,3.178c10.487,-3.68 23.752,1.483 27.52,11.829c1.732,4.759 1.584,10.051 0.407,14.997l-7.46,30.798c-0.274,0.984 -0.401,1.126 -0.656,1.518c-1.097,1.676 -2.749,2.576 -5.22,2.066l-8.173,-1.98c-0.984,-0.274 -1.127,-0.401 -1.518,-0.656c-1.677,-1.097 -2.577,-2.749 -2.067,-5.22c2.433,-10.044 4.97,-20.063 7.297,-30.133c0.996,-4.47 -1.831,-9.229 -8.26,-6.67c-2.081,0.828 -3.945,2.129 -5.655,3.602c0,0 -7.262,29.839 -7.262,29.839c0,0 -1.746,4.437 -5.876,3.585l-8.174,-1.98c-0.984,-0.274 -1.126,-0.401 -1.518,-0.657c-1.676,-1.096 -2.576,-2.748 -2.066,-5.219l11.439,-47.226c0.274,-0.984 0.401,-1.127 0.657,-1.518c0.971,-1.485 2.752,-2.3 4.564,-2.178Zm-250.149,-11.963c1.99,0.277 3.63,1.671 4.211,3.618c4.466,17.204 8.764,34.454 13.402,51.613c0.082,0.296 0.169,0.591 0.267,0.882c0.076,0.225 0.157,0.448 0.246,0.668c0.077,0.192 0.159,0.382 0.248,0.569c0.067,0.138 0.136,0.275 0.211,0.409c1.312,2.366 4.922,1.07 7.362,-0.796c0,0 4.788,-2.19 7.114,1.336l3.704,6.086c4.023,7.184 -13.552,15.194 -24.403,11.146c-6.228,-2.324 -10.393,-8.462 -12.161,-15.156l-13.552,-52.198c-0.569,-2.566 0.501,-5.043 3.488,-5.934l8.14,-2.113c0.701,-0.156 0.904,-0.186 1.723,-0.13Zm64.321,6.726c10.682,0.098 20.883,6.428 25.535,16.38c5.545,11.862 3.852,27.247 -5.389,36.147c-10.523,10.136 -29.179,10.858 -40.094,0.469c-11.525,-10.971 -13.269,-31.742 -2.332,-43.683c5.588,-6.101 13.974,-9.339 22.28,-9.313Zm156.235,-33.845c0.287,-1.411 1.354,-2.605 2.843,-2.982c2.07,-0.523 4.175,0.732 4.699,2.802c0.524,2.07 -0.732,4.176 -2.802,4.7c-0.665,0.168 -1.335,0.152 -1.954,-0.015c-0.944,-0.255 -1.901,-0.257 -2.492,0.189c-5.713,4.311 -10.164,10.258 -12.28,17.245c-0.777,2.564 -1.299,5.212 -1.613,7.927c-0.123,1.062 0.491,2.619 1.671,3.203c0.552,0.274 1.096,0.569 1.63,0.888l0.218,-0.134c0.245,-0.13 0.303,-0.169 0.56,-0.276c0.769,-0.32 1.616,-0.416 2.447,-0.352l7.616,0.827c0.275,0.039 0.345,0.042 0.615,0.106c2.118,0.505 3.78,2.534 3.818,4.749c0.005,0.278 -0.007,0.347 -0.028,0.623c-1.329,12.235 -2.773,24.458 -3.987,36.704c-0.022,0.232 -0.033,0.568 -0.033,0.568c0.169,0.057 0.346,0.091 0.524,0.111l0.311,0.045c0.273,0.057 0.343,0.065 0.61,0.148c2.387,0.743 3.97,3.47 3.342,5.961c-0.068,0.271 -0.098,0.335 -0.191,0.597l-2.471,6.311c-0.926,2.162 -3.232,3.374 -5.59,3.079c-4.1,-0.512 -8.181,-2.15 -10.837,-5.327c-9.194,5.769 -22.538,3.773 -30.438,-4.383c-12.179,-12.573 -9.948,-36.69 4.025,-47.394c2.028,-1.554 4.279,-2.788 6.66,-3.687c1.093,-0.413 1.819,-1.818 1.339,-2.891c-2.497,-5.575 -5.435,-11.114 -10.982,-15.122c-2.188,-1.58 -4.783,-2.755 -7.463,-3.086c-0.824,-0.101 -1.35,0.665 -1.69,1.166c-0.513,0.757 -1.295,1.336 -2.251,1.578c-2.07,0.523 -4.175,-0.732 -4.699,-2.802c-0.524,-2.07 0.732,-4.176 2.802,-4.7c1.258,-0.318 2.529,0.021 3.451,0.801c0.553,0.468 1.546,0.839 2.15,0.85c0.468,0.01 0.936,0.04 1.404,0.092c6.558,0.753 12.188,5.305 16.162,10.337c2.444,3.095 4.435,6.591 5.975,10.186c0.336,0.786 1.631,1.859 2.811,1.827c1.178,-0.032 2.361,0.012 3.539,0.131c1.308,0.133 2.303,-1.14 2.425,-1.994c0.366,-2.561 1.013,-5.079 1.817,-7.418c2.679,-7.791 8.047,-14.502 15.036,-19.1c0.686,-0.452 1.162,-1.409 1.301,-2.088Zm-89.239,27.873c12.526,0.09 24.343,8.583 27.711,21.174c4.295,16.062 -4.404,35.291 -21.712,38.783c-14.36,2.897 -30.371,-5.834 -34.259,-21.294c-2.776,-11.034 -0.112,-23.705 8.33,-31.371c5.339,-4.849 12.717,-7.303 19.93,-7.292Zm-67.986,23.242c-7.758,0.085 -13.799,10.019 -8.188,19.948c3.108,5.5 11.365,9.733 17.198,2.603c5.968,-7.295 1.357,-22.289 -8.75,-22.55c-0.087,-0.001 -0.174,-0.002 -0.26,-0.001Zm135.705,-3.287c-2.082,-0.207 -4.229,0.208 -5.993,1.331c-3.656,2.327 -5.264,6.999 -5.608,11.24c-0.395,4.864 0.984,10.438 5.922,12.653c3.207,1.438 7.099,0.814 10.107,-1.412l0.099,-0.075l2.306,-21.234c-2.005,-1.313 -4.273,-2.206 -6.679,-2.486c-0.051,-0.006 -0.102,-0.012 -0.154,-0.017Zm-68.092,-2.744c-6.41,0.107 -11.565,6.767 -10.427,15.052c0.908,6.608 6.722,12.924 14.197,10.586c4.962,-1.551 7.125,-7.728 7.134,-12.192c0.013,-6.126 -3.514,-12.703 -9.74,-13.389c-0.387,-0.043 -0.775,-0.058 -1.164,-0.057Z" style="fill:#58595f;"/></svg>