<?xml version="1.0" encoding="UTF-8" standalone="no"?><!DOCTYPE svg PUBLIC "-//W3C//DTD SVG 1.1//EN" "http://www.w3.org/Graphics/SVG/1.1/DTD/svg11.dtd"><svg width="100%" height="100%" viewBox="0 0 401 128" version="1.1" xmlns="http://www.w3.org/2000/svg" xmlns:xlink="http://www.w3.org/1999/xlink" xml:space="preserve" xmlns:serif="http://www.serif.com/" style="fill-rule:evenodd;clip-rule:evenodd;stroke-linejoin:round;stroke-miterlimit:1.41421;"><g id="Full-Logo-Main" serif:id="Full Logo Main"><rect x="0.081" y="0.409" width="400" height="127.099" style="fill:none;"/><path d="M28.114,39.948c1.8,0.016 4.368,0.26 4.368,0.26c1.791,0.208 2.418,0.734 3.134,1.476c0.86,0.891 1.313,2.11 1.366,3.361l0.031,7.536c-0.037,1.11 -0.142,1.293 -0.325,1.767c-0.832,2.165 -3.217,3.322 -5.679,3.014c-2.226,-0.261 -2.424,-0.243 -3.697,-0.229c-0.413,0.005 -0.824,0.045 -1.231,0.113c-0.314,0.052 -0.625,0.122 -0.932,0.205c-1.744,0.472 -3.605,1.744 -3.393,3.89c0.076,0.775 0.292,1.529 0.552,2.259l0.469,1.303l8.961,-3.225c0,0 4.639,-1.014 6.227,2.931l2.469,6.858c0.713,2.241 -0.214,4.822 -2.267,5.931c-0.285,0.154 -0.365,0.176 -0.665,0.297l-8.961,3.225l11.738,32.613c0,0 1.066,4.617 -2.931,6.227l-7.914,2.848c-2.24,0.713 -4.822,-0.213 -5.93,-2.267c-0.154,-0.285 -0.176,-0.364 -0.297,-0.664l-11.738,-32.613l-2.801,0.994c-2.165,0.515 -4.536,-0.436 -5.584,-2.377c-0.154,-0.285 -0.176,-0.365 -0.297,-0.665l-2.468,-6.858c-0.713,-2.24 0.214,-4.822 2.267,-5.93c0.285,-0.154 0.365,-0.177 0.664,-0.297l2.455,-0.884c-1.253,-3.48 -3.557,-13.506 1.213,-20.927c4.413,-6.863 13.213,-10.202 21.196,-10.172Z" style="fill:#50b668;fill-rule:nonzero;"/></g></svg>