<?xml version="1.0" encoding="UTF-8" standalone="no"?><!DOCTYPE svg PUBLIC "-//W3C//DTD SVG 1.1//EN" "http://www.w3.org/Graphics/SVG/1.1/DTD/svg11.dtd"><svg width="100%" height="100%" viewBox="0 0 401 128" version="1.1" xmlns="http://www.w3.org/2000/svg" xmlns:xlink="http://www.w3.org/1999/xlink" xml:space="preserve" xmlns:serif="http://www.serif.com/" style="fill-rule:evenodd;clip-rule:evenodd;stroke-linejoin:round;stroke-miterlimit:1.41421;"><g id="Full-Logo-Main" serif:id="Full Logo Main"><rect x="0.081" y="0.246" width="400" height="127.099" style="fill:none;"/><path d="M279.763,3.346c0.287,-1.41 1.355,-2.604 2.843,-2.981c2.07,-0.523 4.175,0.732 4.699,2.802c0.524,2.07 -0.732,4.176 -2.802,4.699c-0.665,0.169 -1.335,0.153 -1.954,-0.014c-0.944,-0.255 -1.901,-0.257 -2.492,0.189c-5.713,4.311 -10.164,10.258 -12.28,17.244c-0.777,2.564 -1.299,5.212 -1.613,7.928c-0.123,1.062 0.491,2.618 1.671,3.203c0.552,0.273 1.096,0.569 1.63,0.887l0.218,-0.133c0.245,-0.131 0.303,-0.169 0.56,-0.276c0.769,-0.32 1.616,-0.416 2.447,-0.353l7.616,0.828c0.275,0.039 0.345,0.042 0.615,0.106c2.118,0.505 3.78,2.534 3.818,4.749c0.005,0.277 -0.007,0.347 -0.028,0.623c-1.329,12.235 -2.773,24.457 -3.987,36.704c-0.022,0.232 -0.033,0.568 -0.033,0.568c0.169,0.057 0.346,0.09 0.524,0.11l0.311,0.045c0.273,0.058 0.343,0.066 0.61,0.149c2.387,0.743 3.97,3.47 3.342,5.961c-0.068,0.27 -0.098,0.335 -0.191,0.597l-2.471,6.311c-0.926,2.162 -3.232,3.374 -5.59,3.079c-4.1,-0.512 -8.181,-2.15 -10.837,-5.327c-9.194,5.769 -22.538,3.773 -30.438,-4.383c-12.179,-12.573 -9.948,-36.691 4.025,-47.394c2.028,-1.554 4.279,-2.788 6.66,-3.687c1.093,-0.413 1.819,-1.818 1.339,-2.891c-2.497,-5.575 -5.435,-11.114 -10.982,-15.122c-2.188,-1.581 -4.782,-2.755 -7.463,-3.086c-0.824,-0.102 -1.35,0.665 -1.69,1.166c-0.513,0.757 -1.295,1.336 -2.251,1.577c-2.07,0.524 -4.175,-0.731 -4.699,-2.802c-0.524,-2.07 0.732,-4.175 2.802,-4.699c1.258,-0.318 2.529,0.021 3.451,0.801c0.553,0.468 1.546,0.839 2.15,0.85c0.468,0.009 0.936,0.04 1.404,0.091c6.558,0.754 12.188,5.306 16.162,10.338c2.444,3.095 4.435,6.59 5.975,10.186c0.336,0.786 1.631,1.859 2.811,1.827c1.179,-0.032 2.361,0.011 3.539,0.131c1.308,0.133 2.303,-1.14 2.425,-1.994c0.366,-2.562 1.013,-5.08 1.817,-7.418c2.679,-7.791 8.047,-14.503 15.036,-19.1c0.686,-0.452 1.162,-1.409 1.301,-2.089Zm-21.52,47.829c-2.082,-0.207 -4.228,0.208 -5.993,1.33c-3.656,2.327 -5.264,7 -5.608,11.241c-0.395,4.864 0.984,10.438 5.922,12.653c3.207,1.438 7.099,0.814 10.107,-1.412l0.099,-0.075l2.306,-21.234c-2.005,-1.313 -4.273,-2.207 -6.679,-2.486c-0.051,-0.006 -0.102,-0.012 -0.154,-0.017Z" style="fill:#50b668;"/></g></svg>