<?xml version="1.0" encoding="UTF-8" standalone="no"?><!DOCTYPE svg PUBLIC "-//W3C//DTD SVG 1.1//EN" "http://www.w3.org/Graphics/SVG/1.1/DTD/svg11.dtd"><svg width="100%" height="100%" viewBox="0 0 401 128" version="1.1" xmlns="http://www.w3.org/2000/svg" xmlns:xlink="http://www.w3.org/1999/xlink" xml:space="preserve" xmlns:serif="http://www.serif.com/" style="fill-rule:evenodd;clip-rule:evenodd;stroke-linejoin:round;stroke-miterlimit:1.41421;"><g id="Full-Logo-Main" serif:id="Full Logo Main"><rect x="0.899" y="0.828" width="400" height="127.099" style="fill:none;"/><path d="M191.358,31.801c12.526,0.09 24.343,8.583 27.711,21.174c4.295,16.062 -4.404,35.291 -21.712,38.783c-14.36,2.897 -30.371,-5.834 -34.259,-21.294c-2.776,-11.034 -0.112,-23.705 8.329,-31.371c5.34,-4.849 12.718,-7.303 19.931,-7.292Zm-0.373,17.212c-6.41,0.106 -11.565,6.766 -10.427,15.051c0.908,6.608 6.722,12.924 14.197,10.586c4.961,-1.551 7.124,-7.727 7.134,-12.192c0.012,-6.126 -3.514,-12.703 -9.74,-13.389c-0.387,-0.042 -0.775,-0.058 -1.164,-0.056Z" style="fill:#50b668;fill-rule:nonzero;"/></g></svg>