<?xml version="1.0" encoding="UTF-8" standalone="no"?><!DOCTYPE svg PUBLIC "-//W3C//DTD SVG 1.1//EN" "http://www.w3.org/Graphics/SVG/1.1/DTD/svg11.dtd"><svg width="100%" height="100%" viewBox="0 0 103 137" version="1.1" xmlns="http://www.w3.org/2000/svg" xmlns:xlink="http://www.w3.org/1999/xlink" xml:space="preserve" xmlns:serif="http://www.serif.com/" style="fill-rule:evenodd;clip-rule:evenodd;stroke-linejoin:round;stroke-miterlimit:1.41421;"><path d="M81.538,4.98c0.189,-2.025 1.506,-3.866 3.54,-4.622c2.828,-1.051 5.978,0.391 7.03,3.219c1.051,2.829 -0.391,5.979 -3.22,7.03c-0.909,0.338 -1.851,0.419 -2.747,0.278c-1.365,-0.215 -2.71,-0.071 -3.472,0.645c-7.368,6.929 -12.714,15.964 -14.621,26.102c-0.7,3.721 -1.03,7.521 -1.056,11.384c-0.011,1.511 1.089,3.604 2.836,4.245c0.818,0.3 1.627,0.632 2.426,0.998l0.285,-0.221c0.324,-0.22 0.401,-0.284 0.745,-0.473c1.032,-0.567 2.208,-0.832 3.384,-0.869l10.827,0c0.392,0.013 0.491,0.007 0.88,0.056c3.052,0.385 5.697,2.983 6.089,6.089c0.049,0.389 0.043,0.488 0.055,0.88c0,17.391 -0.163,34.784 0.001,52.174c0.005,0.33 0.04,0.803 0.04,0.803c0.247,0.055 0.5,0.075 0.754,0.076l0.443,0.015c0.392,0.039 0.492,0.04 0.879,0.116c3.468,0.679 6.108,4.269 5.606,7.864c-0.054,0.391 -0.086,0.486 -0.178,0.869l-2.508,9.243c-0.97,3.178 -4.025,5.233 -7.384,5.179c-5.837,-0.094 -11.822,-1.772 -16.038,-5.83c-12.037,9.508 -31.088,8.741 -43.432,-1.512c-19.029,-15.805 -19.575,-50.029 -1.578,-67.2c2.612,-2.492 5.586,-4.569 8.793,-6.196c1.473,-0.747 2.279,-2.832 1.44,-4.266c-4.358,-7.451 -9.331,-14.785 -17.736,-19.569c-3.315,-1.887 -7.14,-3.141 -10.956,-3.196c-1.173,-0.018 -1.795,1.14 -2.196,1.896c-0.606,1.141 -1.616,2.074 -2.922,2.559c-2.828,1.052 -5.978,-0.391 -7.03,-3.219c-1.051,-2.829 0.391,-5.978 3.22,-7.03c1.719,-0.639 3.556,-0.357 4.97,0.598c0.849,0.573 2.3,0.942 3.151,0.867c0.658,-0.059 1.321,-0.087 1.986,-0.086c9.328,0.057 17.932,5.593 24.285,12.057c3.906,3.974 7.236,8.581 9.948,13.398c0.593,1.053 2.575,2.363 4.228,2.138c1.651,-0.225 3.319,-0.345 4.992,-0.356c1.859,-0.013 3.062,-1.953 3.103,-3.172c0.123,-3.655 0.647,-7.291 1.42,-10.699c2.575,-11.355 9.093,-21.603 18.21,-29.129c0.895,-0.739 1.417,-2.157 1.508,-3.133Zm-22.933,70.48c-2.957,0.027 -5.909,0.938 -8.216,2.784c-4.783,3.827 -6.328,10.638 -6.165,16.648c0.188,6.894 2.976,14.515 10.252,16.873c4.724,1.531 10.098,0.06 13.984,-3.527l0.127,-0.12l0,-30.185c-3.017,-1.538 -6.34,-2.447 -9.763,-2.473c-0.073,0 -0.146,0 -0.219,0Z" style="fill:#58595f;fill-rule:nonzero;"/></svg>