<?xml version="1.0" encoding="UTF-8" standalone="no"?><!DOCTYPE svg PUBLIC "-//W3C//DTD SVG 1.1//EN" "http://www.w3.org/Graphics/SVG/1.1/DTD/svg11.dtd"><svg width="100%" height="100%" viewBox="0 0 401 128" version="1.1" xmlns="http://www.w3.org/2000/svg" xmlns:xlink="http://www.w3.org/1999/xlink" xml:space="preserve" xmlns:serif="http://www.serif.com/" style="fill-rule:evenodd;clip-rule:evenodd;stroke-linejoin:round;stroke-miterlimit:1.41421;"><g id="Full-Logo-Main" serif:id="Full Logo Main"><rect x="0.899" y="0.409" width="400" height="127.099" style="fill:none;"/><path d="M60.026,30.628c1.989,0.278 3.63,1.671 4.21,3.618c4.467,17.205 8.764,34.454 13.402,51.614c0.082,0.296 0.17,0.591 0.268,0.882c0.075,0.225 0.157,0.447 0.245,0.667c0.077,0.193 0.16,0.383 0.249,0.569c0.066,0.139 0.136,0.276 0.21,0.41c1.313,2.365 4.923,1.069 7.363,-0.796c0,0 4.788,-2.19 7.114,1.335l3.704,6.086c4.023,7.185 -13.553,15.195 -24.404,11.146c-6.228,-2.324 -10.393,-8.462 -12.161,-15.155l-13.552,-52.198c-0.569,-2.567 0.501,-5.044 3.488,-5.934l8.14,-2.113c0.702,-0.156 0.904,-0.186 1.724,-0.131Z" style="fill:#50b668;fill-rule:nonzero;"/></g></svg>