<?xml version="1.0" encoding="UTF-8" standalone="no"?><!DOCTYPE svg PUBLIC "-//W3C//DTD SVG 1.1//EN" "http://www.w3.org/Graphics/SVG/1.1/DTD/svg11.dtd"><svg width="100%" height="100%" viewBox="0 0 401 128" version="1.1" xmlns="http://www.w3.org/2000/svg" xmlns:xlink="http://www.w3.org/1999/xlink" xml:space="preserve" xmlns:serif="http://www.serif.com/" style="fill-rule:evenodd;clip-rule:evenodd;stroke-linejoin:round;stroke-miterlimit:1.41421;"><g id="Full-Logo-Main" serif:id="Full Logo Main"><rect x="0.081" y="0.665" width="400" height="127.099" style="fill:none;"/><path d="M381.998,49.032c0.626,0.058 0.784,0.09 1.383,0.282l6.065,2.188c2.44,0.98 3.879,3.262 2.927,6.23l-3.549,9.837l8.079,2.915c0,0 4.236,2.149 2.927,6.23l-2.474,6.856c-0.98,2.44 -3.262,3.879 -6.23,2.927l-8.079,-2.915c-2.133,5.911 -4.328,11.801 -6.396,17.735c-0.648,1.901 -2.081,4.32 1.611,5.444c1.846,0.561 3.864,0.368 5.84,0.066c0,0 2.477,-0.124 3.929,1.138c1.055,0.917 1.626,1.78 1.673,3.731l-0.085,7.122c-0.052,1.077 -0.154,1.253 -0.334,1.713c-1.55,3.968 -7.952,3.853 -12.711,3.261c-8.684,-1.079 -16.991,-7.025 -18.402,-16.248c-0.678,-4.437 0.196,-8.97 1.718,-13.242l6.09,-16.878l-3.656,-1.332c-2.249,-1.095 -3.519,-3.247 -2.604,-6.1l2.474,-6.856c0.978,-2.435 3.262,-3.879 6.23,-2.927l4.008,1.447l4.94,-9.932c0,0 2.06,-2.74 4.626,-2.692Z" style="fill:#50b668;fill-rule:nonzero;"/></g></svg>