<?xml version="1.0" encoding="UTF-8" standalone="no"?><!DOCTYPE svg PUBLIC "-//W3C//DTD SVG 1.1//EN" "http://www.w3.org/Graphics/SVG/1.1/DTD/svg11.dtd"><svg width="100%" height="100%" viewBox="0 0 401 128" version="1.1" xmlns="http://www.w3.org/2000/svg" xmlns:xlink="http://www.w3.org/1999/xlink" xml:space="preserve" xmlns:serif="http://www.serif.com/" style="fill-rule:evenodd;clip-rule:evenodd;stroke-linejoin:round;stroke-miterlimit:1.41421;"><g id="Full-Logo-Main" serif:id="Full Logo Main"><rect x="0.081" y="0.828" width="400" height="127.099" style="fill:none;"/><path d="M123.528,37.773c10.682,0.098 20.883,6.428 25.535,16.38c5.545,11.863 3.852,27.247 -5.389,36.147c-10.523,10.136 -29.179,10.859 -40.094,0.469c-11.525,-10.971 -13.268,-31.742 -2.332,-43.683c5.588,-6.101 13.974,-9.339 22.28,-9.313Zm-0.99,17.27c-7.758,0.085 -13.799,10.019 -8.188,19.948c3.108,5.5 11.365,9.734 17.198,2.603c5.968,-7.295 1.357,-22.289 -8.75,-22.549c-0.087,-0.002 -0.174,-0.003 -0.26,-0.002Z" style="fill:#50b668;fill-rule:nonzero;"/></g></svg>