<?xml version="1.0" encoding="UTF-8" standalone="no"?><!DOCTYPE svg PUBLIC "-//W3C//DTD SVG 1.1//EN" "http://www.w3.org/Graphics/SVG/1.1/DTD/svg11.dtd"><svg width="100%" height="100%" viewBox="0 0 401 128" version="1.1" xmlns="http://www.w3.org/2000/svg" xmlns:xlink="http://www.w3.org/1999/xlink" xml:space="preserve" xmlns:serif="http://www.serif.com/" style="fill-rule:evenodd;clip-rule:evenodd;stroke-linejoin:round;stroke-miterlimit:1.41421;"><g id="Full-Logo-Main" serif:id="Full Logo Main"><rect x="0.899" y="0.246" width="400" height="127.099" style="fill:none;"/><path d="M310.174,42.428c0.33,0.045 0.329,0.045 0.655,0.112l7.901,1.914c1.599,0.446 2.885,1.553 3.465,3.177c10.487,-3.68 23.753,1.483 27.52,11.83c1.733,4.759 1.584,10.05 0.407,14.997l-7.459,30.798c-0.274,0.983 -0.401,1.126 -0.657,1.517c-1.096,1.677 -2.748,2.577 -5.219,2.067l-8.174,-1.98c-0.984,-0.274 -1.126,-0.401 -1.518,-0.657c-1.676,-1.096 -2.576,-2.748 -2.066,-5.219c2.433,-10.044 4.969,-20.064 7.296,-30.133c0.996,-4.47 -1.831,-9.229 -8.26,-6.67c-2.08,0.828 -3.945,2.129 -5.655,3.602c0,0 -7.262,29.839 -7.262,29.839c0,0 -1.746,4.437 -5.875,3.585l-8.174,-1.98c-0.984,-0.274 -1.127,-0.401 -1.518,-0.657c-1.677,-1.096 -2.577,-2.748 -2.067,-5.219l11.439,-47.226c0.274,-0.984 0.401,-1.127 0.657,-1.518c0.971,-1.486 2.752,-2.3 4.564,-2.179Z" style="fill:#50b668;fill-rule:nonzero;"/></g></svg>