<?xml version="1.0" encoding="UTF-8" standalone="no"?><!DOCTYPE svg PUBLIC "-//W3C//DTD SVG 1.1//EN" "http://www.w3.org/Graphics/SVG/1.1/DTD/svg11.dtd"><svg width="100%" height="100%" viewBox="0 0 401 128" version="1.1" xmlns="http://www.w3.org/2000/svg" xmlns:xlink="http://www.w3.org/1999/xlink" xml:space="preserve" xmlns:serif="http://www.serif.com/" style="fill-rule:evenodd;clip-rule:evenodd;stroke-linejoin:round;stroke-miterlimit:1.41421;"><g id="Full-Logo-Main" serif:id="Full Logo Main"><path d="M57.73,127.962c45.148,-13.85 93.083,-21.304 142.745,-21.304c49.662,0 97.596,7.454 142.744,21.304c-46.028,-6.995 -93.784,-10.677 -142.744,-10.677c-48.961,0 -96.716,3.682 -142.745,10.677Z" style="fill:#50b668;"/><path d="M382.407,49.231c0.627,0.057 0.785,0.089 1.384,0.281l6.065,2.188c2.439,0.98 3.879,3.262 2.926,6.23l-3.549,9.837l8.08,2.915c0,0 4.236,2.15 2.926,6.23l-2.474,6.856c-0.979,2.44 -3.262,3.879 -6.229,2.927l-8.08,-2.915c-2.133,5.911 -4.328,11.801 -6.396,17.735c-0.648,1.902 -2.08,4.321 1.611,5.444c1.846,0.562 3.864,0.368 5.841,0.066c0,0 2.476,-0.124 3.928,1.138c1.055,0.917 1.626,1.78 1.674,3.731l-0.086,7.122c-0.052,1.077 -0.154,1.253 -0.334,1.713c-1.55,3.968 -7.952,3.853 -12.711,3.261c-8.684,-1.079 -16.991,-7.024 -18.401,-16.248c-0.679,-4.437 0.195,-8.97 1.718,-13.241l6.089,-16.879l-3.655,-1.331c-2.25,-1.096 -3.52,-3.248 -2.604,-6.101l2.473,-6.856c0.978,-2.435 3.262,-3.879 6.23,-2.926l4.008,1.446l4.94,-9.931c0,0 2.061,-2.741 4.626,-2.692Z" style="fill:#50b668;fill-rule:nonzero;"/><path d="M309.765,43.045c0.329,0.045 0.329,0.045 0.655,0.112l7.901,1.914c1.598,0.445 2.885,1.553 3.465,3.177c10.487,-3.68 23.752,1.483 27.52,11.83c1.733,4.759 1.584,10.05 0.407,14.997l-7.459,30.797c-0.275,0.984 -0.401,1.127 -0.657,1.518c-1.097,1.677 -2.749,2.577 -5.219,2.067l-8.174,-1.98c-0.984,-0.274 -1.127,-0.401 -1.518,-0.657c-1.677,-1.096 -2.576,-2.748 -2.067,-5.219c2.433,-10.044 4.97,-20.064 7.297,-30.133c0.996,-4.471 -1.831,-9.23 -8.26,-6.67c-2.08,0.828 -3.945,2.128 -5.655,3.602c0,0 -7.262,29.839 -7.262,29.839c0,0 -1.746,4.437 -5.876,3.584l-8.173,-1.979c-0.984,-0.275 -1.127,-0.401 -1.518,-0.657c-1.677,-1.097 -2.577,-2.748 -2.067,-5.219l11.439,-47.226c0.274,-0.984 0.401,-1.127 0.657,-1.518c0.971,-1.486 2.752,-2.3 4.564,-2.179Z" style="fill:#50b668;fill-rule:nonzero;"/><path d="M280.172,3.963c0.288,-1.411 1.355,-2.605 2.843,-2.981c2.07,-0.524 4.176,0.732 4.699,2.802c0.524,2.07 -0.732,4.176 -2.802,4.699c-0.665,0.168 -1.334,0.153 -1.953,-0.014c-0.945,-0.256 -1.902,-0.257 -2.492,0.188c-5.713,4.311 -10.164,10.259 -12.281,17.245c-0.777,2.564 -1.299,5.212 -1.613,7.928c-0.123,1.062 0.491,2.618 1.671,3.202c0.553,0.274 1.097,0.57 1.631,0.888l0.217,-0.134c0.245,-0.13 0.303,-0.168 0.56,-0.275c0.769,-0.32 1.617,-0.417 2.447,-0.353l7.617,0.828c0.274,0.038 0.344,0.041 0.615,0.106c2.117,0.504 3.779,2.533 3.818,4.748c0.004,0.278 -0.007,0.347 -0.029,0.624c-1.329,12.234 -2.773,24.457 -3.986,36.704c-0.022,0.232 -0.034,0.567 -0.034,0.567c0.17,0.058 0.346,0.091 0.524,0.111l0.311,0.045c0.273,0.057 0.343,0.065 0.61,0.148c2.387,0.743 3.97,3.471 3.343,5.961c-0.069,0.271 -0.098,0.335 -0.192,0.598l-2.471,6.31c-0.925,2.162 -3.231,3.374 -5.59,3.08c-4.099,-0.513 -8.181,-2.15 -10.837,-5.327c-9.194,5.769 -22.538,3.773 -30.438,-4.383c-12.178,-12.573 -9.947,-36.691 4.025,-47.395c2.028,-1.553 4.279,-2.787 6.66,-3.686c1.093,-0.413 1.82,-1.818 1.339,-2.891c-2.497,-5.575 -5.434,-11.114 -10.982,-15.122c-2.188,-1.581 -4.782,-2.755 -7.463,-3.086c-0.824,-0.102 -1.35,0.665 -1.689,1.166c-0.514,0.757 -1.296,1.335 -2.251,1.577c-2.07,0.524 -4.176,-0.732 -4.7,-2.802c-0.523,-2.07 0.732,-4.175 2.802,-4.699c1.258,-0.318 2.53,0.021 3.451,0.8c0.553,0.469 1.546,0.839 2.15,0.851c0.468,0.009 0.936,0.04 1.404,0.091c6.558,0.753 12.188,5.305 16.163,10.338c2.444,3.094 4.434,6.59 5.974,10.185c0.337,0.786 1.631,1.86 2.811,1.828c1.179,-0.032 2.361,0.011 3.539,0.131c1.308,0.133 2.303,-1.14 2.425,-1.994c0.366,-2.562 1.013,-5.08 1.817,-7.418c2.679,-7.792 8.048,-14.503 15.036,-19.1c0.687,-0.452 1.162,-1.41 1.301,-2.089Zm-21.52,47.829c-2.082,-0.207 -4.228,0.208 -5.992,1.33c-3.657,2.327 -5.265,7 -5.609,11.24c-0.395,4.865 0.984,10.439 5.922,12.653c3.207,1.438 7.099,0.815 10.107,-1.412l0.099,-0.074l2.307,-21.235c-2.006,-1.313 -4.274,-2.206 -6.68,-2.486c-0.051,-0.005 -0.102,-0.011 -0.154,-0.016Z" style="fill:#58595f;"/><path d="M190.934,31.837c12.525,0.09 24.343,8.582 27.71,21.174c4.295,16.061 -4.403,35.29 -21.712,38.782c-14.36,2.897 -30.37,-5.834 -34.259,-21.294c-2.775,-11.034 -0.112,-23.705 8.33,-31.371c5.339,-4.849 12.717,-7.303 19.931,-7.291Zm-0.374,17.211c-6.409,0.106 -11.565,6.767 -10.426,15.052c0.908,6.607 6.722,12.924 14.196,10.586c4.962,-1.552 7.125,-7.728 7.134,-12.193c0.013,-6.125 -3.514,-12.703 -9.74,-13.389c-0.386,-0.042 -0.775,-0.057 -1.164,-0.056Z" style="fill:#50b668;fill-rule:nonzero;"/><path d="M123.937,37.809c10.682,0.097 20.883,6.427 25.535,16.379c5.545,11.863 3.852,27.248 -5.389,36.147c-10.523,10.136 -29.179,10.859 -40.093,0.469c-11.526,-10.971 -13.269,-31.742 -2.333,-43.683c5.588,-6.101 13.974,-9.339 22.28,-9.312Zm-0.99,17.269c-7.758,0.086 -13.798,10.019 -8.188,19.949c3.108,5.5 11.365,9.733 17.198,2.603c5.968,-7.296 1.357,-22.29 -8.75,-22.55c-0.087,-0.002 -0.173,-0.002 -0.26,-0.002Z" style="fill:#50b668;fill-rule:nonzero;"/><path d="M59.617,31.082c1.989,0.278 3.63,1.671 4.21,3.618c4.467,17.205 8.764,34.454 13.402,51.614c0.082,0.296 0.17,0.591 0.268,0.882c0.075,0.225 0.157,0.447 0.245,0.667c0.077,0.192 0.159,0.382 0.249,0.569c0.066,0.139 0.136,0.276 0.21,0.41c1.313,2.365 4.923,1.069 7.362,-0.796c0,0 4.789,-2.19 7.114,1.335l3.704,6.086c4.024,7.185 -13.552,15.195 -24.403,11.146c-6.228,-2.324 -10.393,-8.462 -12.161,-15.155l-13.552,-52.198c-0.569,-2.567 0.501,-5.044 3.488,-5.934l8.14,-2.114c0.702,-0.155 0.904,-0.185 1.724,-0.13Z" style="fill:#50b668;fill-rule:nonzero;"/><path d="M28.524,40.402c1.8,0.016 4.367,0.259 4.367,0.259c1.792,0.208 2.418,0.735 3.134,1.477c0.86,0.891 1.313,2.11 1.366,3.36l0.031,7.537c-0.037,1.11 -0.142,1.293 -0.324,1.767c-0.833,2.165 -3.218,3.322 -5.68,3.013c-2.226,-0.26 -2.423,-0.242 -3.697,-0.228c-0.412,0.005 -0.824,0.044 -1.231,0.113c-0.314,0.052 -0.624,0.121 -0.931,0.205c-1.745,0.472 -3.606,1.744 -3.394,3.89c0.076,0.774 0.292,1.529 0.552,2.259l0.469,1.303l8.961,-3.225c0,0 4.639,-1.014 6.228,2.931l2.468,6.858c0.713,2.241 -0.214,4.822 -2.267,5.931c-0.285,0.154 -0.365,0.176 -0.664,0.297l-8.961,3.225l11.737,32.613c0,0 1.066,4.617 -2.931,6.227l-7.913,2.848c-2.241,0.713 -4.822,-0.213 -5.931,-2.267c-0.154,-0.285 -0.176,-0.364 -0.297,-0.664l-11.737,-32.613l-2.802,0.994c-2.165,0.514 -4.535,-0.436 -5.584,-2.378c-0.154,-0.285 -0.176,-0.364 -0.296,-0.664l-2.469,-6.858c-0.713,-2.24 0.214,-4.822 2.267,-5.931c0.285,-0.153 0.365,-0.176 0.665,-0.296l2.454,-0.884c-1.253,-3.48 -3.557,-13.507 1.214,-20.927c4.413,-6.863 13.213,-10.202 21.196,-10.172Z" style="fill:#50b668;fill-rule:nonzero;"/></g></svg>