<?xml version="1.0" encoding="UTF-8" standalone="no"?><!DOCTYPE svg PUBLIC "-//W3C//DTD SVG 1.1//EN" "http://www.w3.org/Graphics/SVG/1.1/DTD/svg11.dtd"><svg width="100%" height="100%" viewBox="0 0 103 137" version="1.1" xmlns="http://www.w3.org/2000/svg" xmlns:xlink="http://www.w3.org/1999/xlink" xml:space="preserve" xmlns:serif="http://www.serif.com/" style="fill-rule:evenodd;clip-rule:evenodd;stroke-linejoin:round;stroke-miterlimit:1.41421;"><path d="M81.79,4.98c0.189,-2.025 1.506,-3.866 3.539,-4.622c2.829,-1.051 5.979,0.391 7.03,3.219c1.052,2.829 -0.391,5.979 -3.219,7.03c-0.909,0.338 -1.852,0.419 -2.747,0.278c-1.366,-0.215 -2.711,-0.071 -3.472,0.645c-7.369,6.929 -12.714,15.964 -14.622,26.102c-0.7,3.721 -1.03,7.521 -1.056,11.384c-0.01,1.511 1.089,3.604 2.836,4.245c0.819,0.3 1.628,0.632 2.427,0.998l0.285,-0.221c0.324,-0.22 0.401,-0.284 0.745,-0.473c1.032,-0.567 2.207,-0.832 3.384,-0.869l10.827,0c0.391,0.013 0.491,0.007 0.88,0.056c3.052,0.385 5.696,2.983 6.089,6.089c0.049,0.389 0.043,0.488 0.055,0.88c0,17.391 -0.163,34.784 0.001,52.174c0.005,0.33 0.04,0.803 0.04,0.803c0.246,0.055 0.499,0.075 0.753,0.076l0.444,0.015c0.392,0.039 0.492,0.04 0.879,0.116c3.467,0.679 6.108,4.269 5.606,7.864c-0.055,0.391 -0.087,0.486 -0.178,0.869l-2.509,9.243c-0.97,3.178 -4.025,5.233 -7.383,5.179c-5.838,-0.094 -11.822,-1.772 -16.038,-5.83c-12.037,9.508 -31.089,8.741 -43.433,-1.512c-19.028,-15.805 -19.575,-50.029 -1.578,-67.2c2.612,-2.492 5.586,-4.569 8.794,-6.196c1.473,-0.747 2.279,-2.832 1.44,-4.266c-4.359,-7.451 -9.331,-14.785 -17.736,-19.569c-3.316,-1.887 -7.14,-3.141 -10.957,-3.196c-1.173,-0.018 -1.794,1.14 -2.195,1.896c-0.606,1.141 -1.617,2.074 -2.922,2.559c-2.829,1.052 -5.979,-0.391 -7.03,-3.219c-1.052,-2.829 0.391,-5.978 3.219,-7.03c1.719,-0.639 3.557,-0.357 4.97,0.598c0.849,0.573 2.3,0.942 3.152,0.867c0.658,-0.059 1.321,-0.087 1.986,-0.086c9.328,0.057 17.932,5.593 24.284,12.057c3.906,3.974 7.236,8.581 9.948,13.398c0.593,1.053 2.576,2.363 4.228,2.138c1.652,-0.225 3.32,-0.345 4.993,-0.356c1.858,-0.013 3.062,-1.953 3.103,-3.172c0.123,-3.655 0.647,-7.291 1.42,-10.699c2.575,-11.355 9.093,-21.603 18.209,-29.129c0.896,-0.739 1.418,-2.157 1.509,-3.133Zm-22.933,70.48c-2.957,0.027 -5.91,0.938 -8.217,2.784c-4.782,3.827 -6.327,10.638 -6.164,16.648c0.188,6.894 2.975,14.515 10.252,16.873c4.724,1.531 10.097,0.06 13.983,-3.527l0.128,-0.12l0,-30.185c-3.018,-1.538 -6.34,-2.447 -9.763,-2.473c-0.073,0 -0.146,0 -0.219,0Z" style="fill:#fff;fill-rule:nonzero;"/></svg>